<?xml version="1.0" standalone="no"?>
<!DOCTYPE svg PUBLIC "-//W3C//DTD SVG 20010904//EN"
 "http://www.w3.org/TR/2001/REC-SVG-20010904/DTD/svg10.dtd">
<svg version="1.0" xmlns="http://www.w3.org/2000/svg"
 width="1280.000000pt" height="509.000000pt" viewBox="0 0 1280.000000 509.000000"
 preserveAspectRatio="xMidYMid meet">

<g transform="translate(0.000000,509.000000) scale(0.100000,-0.100000)"
fill="#000000" stroke="none">
<path d="M11518 4903 c-4 -213 -9 -232 -80 -309 -72 -79 -103 -88 -323 -94
l-190 -5 -3 -338 -2 -339 237 5 c219 4 245 6 325 30 48 14 93 29 99 33 9 5 10
0 5 -17 -53 -166 -58 -202 -63 -421 l-5 -218 341 0 341 0 0 157 c0 210 13 257
91 336 84 84 101 89 322 95 l187 5 0 340 0 340 -202 -6 c-203 -6 -320 -21
-411 -53 -26 -9 -50 -14 -52 -12 -3 2 4 28 15 56 34 89 50 223 50 420 l0 182
-339 0 -339 0 -4 -187z"/>
<path d="M2210 4453 c-70 -11 -213 -49 -277 -74 -225 -88 -430 -278 -541 -502
-33 -65 -78 -186 -126 -337 -41 -129 -86 -269 -99 -310 l-26 -75 -228 -6 -228
-6 -103 -36 c-281 -98 -454 -284 -551 -594 l-29 -93 447 0 c246 0 450 -3 454
-6 3 -3 -2 -29 -12 -58 -19 -53 -51 -151 -145 -446 -30 -96 -90 -283 -132
-415 -42 -132 -90 -283 -106 -335 -44 -140 -73 -229 -120 -375 -37 -117 -42
-140 -42 -230 0 -84 4 -112 27 -173 56 -155 178 -277 328 -327 73 -25 179 -44
179 -32 0 3 50 162 111 354 136 429 155 489 184 583 130 410 259 815 275 860
10 30 46 143 80 250 34 107 73 230 87 273 l25 77 550 0 549 0 77 -26 c123 -41
214 -120 272 -234 56 -110 56 -178 6 -780 -36 -430 -57 -708 -56 -766 0 -66
32 -188 66 -256 62 -124 175 -232 302 -290 77 -35 163 -58 217 -58 l41 0 172
228 c94 125 285 378 424 563 139 184 334 443 433 575 99 131 182 241 185 244
5 4 228 300 441 584 83 111 120 144 207 183 139 63 302 34 421 -73 74 -68 119
-152 132 -250 5 -38 22 -184 39 -324 16 -140 43 -372 60 -515 17 -143 37 -318
46 -390 37 -317 89 -449 234 -594 129 -128 292 -205 478 -225 l62 -7 49 78
c59 94 96 153 186 298 37 61 78 126 90 145 12 19 58 92 101 162 44 70 102 165
131 210 28 46 65 106 82 133 17 28 56 92 88 142 32 51 93 150 137 220 43 71
89 144 101 163 12 19 76 121 140 225 65 105 132 213 150 240 18 28 81 129 140
225 59 96 122 198 140 225 17 28 58 93 90 145 32 52 72 118 90 145 18 28 85
136 150 240 64 105 127 206 140 225 12 19 53 85 90 145 105 170 113 184 176
283 l59 94 228 -4 227 -4 80 -32 c140 -56 210 -124 262 -258 76 -196 -3 -501
-173 -670 -128 -127 -264 -173 -576 -196 l-166 -12 -18 -31 c-16 -29 -238
-387 -350 -565 l-54 -85 453 -6 c391 -4 462 -8 527 -23 105 -26 175 -64 247
-135 134 -134 169 -327 98 -551 -78 -245 -236 -387 -489 -440 -158 -33 -307
-40 -961 -40 l-620 -1 -105 -171 c-58 -94 -153 -248 -212 -342 l-107 -171 717
-3 c761 -3 861 1 1099 43 496 89 880 298 1140 620 177 220 296 502 329 780 30
250 -11 463 -127 659 -47 78 -197 236 -267 280 -49 31 -51 23 31 115 122 137
243 357 310 566 85 267 86 562 3 779 -115 297 -369 500 -715 568 -92 19 -151
22 -445 26 -322 3 -345 2 -435 -18 -111 -26 -241 -88 -317 -152 -74 -63 -142
-149 -233 -293 -104 -165 -221 -347 -290 -456 -30 -46 -75 -115 -99 -154 -25
-38 -64 -99 -87 -135 -23 -36 -76 -119 -118 -185 -42 -66 -132 -206 -199 -312
-68 -106 -152 -238 -188 -294 -36 -57 -104 -164 -152 -238 -215 -336 -265
-414 -346 -542 -48 -75 -125 -196 -172 -269 l-85 -133 -17 139 c-21 172 -75
627 -88 749 -53 460 -350 820 -785 951 -314 95 -686 27 -955 -173 -96 -72
-189 -178 -389 -443 -114 -151 -328 -435 -475 -630 -148 -195 -300 -399 -340
-452 -39 -53 -73 -97 -76 -97 -8 -1 6 218 31 494 23 263 22 350 -10 490 -25
113 -41 157 -90 256 -111 221 -303 405 -527 505 -33 15 -104 40 -159 57 l-100
31 -557 4 c-433 3 -558 6 -558 16 0 28 71 221 101 274 47 82 151 179 240 224
145 73 -46 68 2681 68 2696 0 2569 -2 2752 61 318 110 497 265 739 642 l17 27
-3087 -1 c-1699 -1 -3099 -3 -3113 -6z"/>
</g>
</svg>
